<?xml version="1.0" encoding="UTF-8" standalone="no"?>
<!-- Uploaded to: SVG Repo, www.svgrepo.com, Generator: SVG Repo Mixer Tools -->

<svg
   fill="#000000"
   width="32"
   height="32"
   viewBox="0 0 32 32"
   role="img"
   version="1.1"
   id="svg1"
   sodipodi:docname="adguard.svg"
   inkscape:version="1.3.2 (091e20e, 2023-11-25, custom)"
   xmlns:inkscape="http://www.inkscape.org/namespaces/inkscape"
   xmlns:sodipodi="http://sodipodi.sourceforge.net/DTD/sodipodi-0.dtd"
   xmlns="http://www.w3.org/2000/svg"
   xmlns:svg="http://www.w3.org/2000/svg"
   xmlns:rdf="http://www.w3.org/1999/02/22-rdf-syntax-ns#"
   xmlns:cc="http://creativecommons.org/ns#"
   xmlns:dc="http://purl.org/dc/elements/1.1/">
  <defs
     id="defs1" />
  <sodipodi:namedview
     id="namedview1"
     pagecolor="#ffffff"
     bordercolor="#000000"
     borderopacity="0.25"
     inkscape:showpageshadow="2"
     inkscape:pageopacity="0.0"
     inkscape:pagecheckerboard="0"
     inkscape:deskcolor="#d1d1d1"
     inkscape:zoom="27.84375"
     inkscape:cx="16.035915"
     inkscape:cy="16"
     inkscape:window-width="1920"
     inkscape:window-height="1129"
     inkscape:window-x="-8"
     inkscape:window-y="-8"
     inkscape:window-maximized="1"
     inkscape:current-layer="svg1"
     showgrid="false" />
  <title
     id="title1">AdGuard icon</title>
  <path
     d="m 16.000658,0.2147849 c -4.579028,0 -9.9631022,1.0891798 -14.5605461,3.4569621 L 0.72320008,4.0387533 V 4.849061 c 0,4.8815778 0.0933959,17.907011 14.60263992,26.531 l 0.674818,0.405154 0.674818,-0.405154 C 31.184719,22.756072 31.2768,9.7306388 31.2768,4.8477456 V 4.0479613 L 30.569096,3.6770088 C 26.0269,1.3000184 20.579686,0.2147849 16.000658,0.2147849 Z m 0,2.6466544 c 3.917364,0 8.660821,1.0036766 12.596602,2.8900098 C 28.586736,10.865859 28.047408,20.935511 16.000658,28.547931 3.9539074,20.935511 3.4132638,10.865859 3.4040558,5.7514491 7.3977152,3.8585387 12.083294,2.8614393 16.000658,2.8614393 Z m 6.623213,7.3203937 c -0.342013,0.01052 -0.63667,0.22757 -0.802415,0.393315 l -7.077038,7.340125 -2.646655,-3.174144 c -1.25624,-1.45487 -2.9755128,-0.330174 -3.3727743,-0.06577 l 6.1522883,7.14281 8.39905,-11.375878 a 0.92080422,0.92080422 0 0 0 -0.652456,-0.260456 z"
     id="path1"
     style="stroke-width:1" />
  <metadata
     id="metadata1">
    <rdf:RDF>
      <cc:Work
         rdf:about="">
        <dc:title>AdGuard icon</dc:title>
      </cc:Work>
    </rdf:RDF>
  </metadata>
</svg>
