<?xml version="1.0" encoding="UTF-8" standalone="no"?>
<svg
   width="32"
   height="32"
   viewBox="0 0 32 32"
   version="1.1"
   id="svg1"
   sodipodi:docname="bitwarden.svg"
   inkscape:version="1.3.2 (091e20e, 2023-11-25, custom)"
   xmlns:inkscape="http://www.inkscape.org/namespaces/inkscape"
   xmlns:sodipodi="http://sodipodi.sourceforge.net/DTD/sodipodi-0.dtd"
   xmlns="http://www.w3.org/2000/svg"
   xmlns:svg="http://www.w3.org/2000/svg">
  <sodipodi:namedview
     id="namedview1"
     pagecolor="#ffffff"
     bordercolor="#000000"
     borderopacity="0.25"
     inkscape:showpageshadow="2"
     inkscape:pageopacity="0.0"
     inkscape:pagecheckerboard="0"
     inkscape:deskcolor="#d1d1d1"
     showgrid="false"
     inkscape:zoom="30.919822"
     inkscape:cx="16.057661"
     inkscape:cy="10.559569"
     inkscape:window-width="1920"
     inkscape:window-height="1129"
     inkscape:window-x="-8"
     inkscape:window-y="-8"
     inkscape:window-maximized="1"
     inkscape:current-layer="svg1" />
  <defs
     id="defs1">
    <clipPath
       id="clip0_68_64">
      <rect
         fill="#ffffff"
         height="300"
         id="svg_1"
         width="300"
         x="0"
         y="0" />
    </clipPath>
  </defs>
  <path
     d="M 25.163397,17.310891 V 4.2041172 H 16.00214 V 27.489828 c 1.623365,-0.859302 3.073371,-1.794583 4.355369,-2.805842 3.204996,-2.510491 4.805888,-4.968546 4.805888,-7.373095 z M 29.089651,1.5823345 V 17.310891 c 0,1.174986 -0.227935,2.339272 -0.684874,3.492856 -0.458009,1.152515 -1.02303,2.177685 -1.698273,3.071231 -0.675243,0.894617 -1.47997,1.764621 -2.41311,2.612152 -0.934211,0.845391 -1.796724,1.549527 -2.587539,2.109198 -0.790816,0.55967 -1.614805,1.088307 -2.474107,1.586981 -0.859303,0.498674 -1.468199,0.83576 -1.830968,1.013399 -0.360629,0.177639 -0.65063,0.314614 -0.868933,0.409854 -0.163728,0.0824 -0.340297,0.123064 -0.531848,0.123064 -0.19155,0 -0.367049,-0.04067 -0.531847,-0.123064 -0.218304,-0.09524 -0.508305,-0.232215 -0.868934,-0.409854 C 14.237519,31.019069 13.627553,30.681983 12.768251,30.183309 11.908948,29.684635 11.084959,29.155998 10.294144,28.596328 9.5033287,28.036657 8.6408157,27.332521 7.706605,26.48713 6.7734643,25.639599 5.9687375,24.769595 5.2934947,23.874978 4.6182519,22.981432 4.053231,21.957332 3.5952216,20.803747 3.1393524,19.649093 2.9103477,18.485877 2.9103477,17.310891 V 1.5823345 c 0,-0.3552783 0.129484,-0.66240147 0.3884519,-0.92243951 0.2600381,-0.26003804 0.5660911,-0.389522 0.9202993,-0.389522 H 27.776619 c 0.354208,0 0.661332,0.12948396 0.9203,0.389522 0.257897,0.26003804 0.388451,0.56716121 0.388451,0.92243951 z"
     fill="#000000"
     id="svg_4"
     style="stroke-width:0.999999" />
</svg>
