<?xml version="1.0" encoding="UTF-8" standalone="no"?>
<svg
   version="1.1"
   x="0px"
   y="0px"
   viewBox="0 0 32 32"
   xml:space="preserve"
   id="svg2"
   sodipodi:docname="llama-alt.svg"
   width="32"
   height="32"
   inkscape:version="1.3.2 (091e20e, 2023-11-25, custom)"
   xmlns:inkscape="http://www.inkscape.org/namespaces/inkscape"
   xmlns:sodipodi="http://sodipodi.sourceforge.net/DTD/sodipodi-0.dtd"
   xmlns="http://www.w3.org/2000/svg"
   xmlns:svg="http://www.w3.org/2000/svg"><defs
     id="defs2" /><sodipodi:namedview
     id="namedview2"
     pagecolor="#ffffff"
     bordercolor="#000000"
     borderopacity="0.25"
     inkscape:showpageshadow="2"
     inkscape:pageopacity="0.0"
     inkscape:pagecheckerboard="0"
     inkscape:deskcolor="#d1d1d1"
     showgrid="false"
     inkscape:zoom="15.17"
     inkscape:cx="2.504944"
     inkscape:cy="15.6559"
     inkscape:window-width="1920"
     inkscape:window-height="1009"
     inkscape:window-x="-8"
     inkscape:window-y="-8"
     inkscape:window-maximized="1"
     inkscape:current-layer="svg2" /><path
     d="m 25.088294,12.479075 c 0,0 -0.643095,0.234171 -0.918707,1.170851 0,0 -6.614693,-1.092793 -11.483842,-0.234171 l 0.183741,-5.6981346 c 0,0 0.551224,-2.7319818 -1.653674,-3.2783782 2.296769,-1.8733588 0.09187,-4.13700053 0.09187,-4.13700053 L 9.3783995,4.2050724 c -0.091871,0 -0.2756122,0 -0.367483,0 L 7.3572432,0.84863754 c 0,0 -1.6536734,1.79530246 0,3.27837826 -2.9398638,0 -4.5935376,0.1561132 -4.5935376,0.1561132 0,0 -3.7666996,2.1075288 0,2.6539251 3.7667009,0.624453 3.1236057,1.1708493 2.9398642,1.7172458 0,0 -4.4097959,9.2106831 1.4699319,13.2696271 l 0.9187074,0.780567 c 0,0 0.6430952,2.810038 2.1130259,2.888095 0.183741,0 0.275612,0 0.551224,0 v 4.917568 l -1.4699303,1.092791 h 3.0317333 l 0.367483,-6.010359 c 0.643095,0 1.28619,0 1.929286,0 v 4.917568 l -1.378062,1.092791 h 3.031734 l 0.367483,-6.010359 c 0.459354,0 0.734966,0 0.734966,0 0,0 1.194319,-0.546397 1.194319,-1.092792 0.09187,0.468339 0.643096,2.029471 2.572381,1.951415 l 1.286191,1.483076 -0.551225,2.810038 -1.378061,0.858622 h 2.756122 l 1.561803,-3.90283 -0.551224,-1.483076 c 0.183741,0 0.367483,-0.07806 0.551224,-0.07806 l 1.561803,1.795302 -0.643095,2.810038 -1.286191,0.858623 h 2.756122 l 1.561803,-3.902831 -1.102449,-3.824774 c 0.275613,-1.63919 0.734966,-3.356435 0.734966,-3.356435 0,0 1.561802,-3.980888 -1.745544,-6.322587 0,0 -0.275612,-0.702509 1.653674,0 1.929285,0.70251 2.664251,2.185586 2.664251,2.185586 0,0 1.653673,-7.2592677 -5.879728,-3.902832 z"
     id="path1"
     style="stroke-width:8.46825" /></svg>
