<?xml version="1.0" encoding="UTF-8" standalone="no"?>
<!-- Uploaded to: SVG Repo, www.svgrepo.com, Generator: SVG Repo Mixer Tools -->

<svg
   fill="#000000"
   height="32"
   width="32"
   version="1.1"
   id="Layer_1"
   viewBox="0 0 32 32"
   xml:space="preserve"
   sodipodi:docname="penguin.svg"
   inkscape:version="1.3.2 (091e20e, 2023-11-25, custom)"
   xmlns:inkscape="http://www.inkscape.org/namespaces/inkscape"
   xmlns:sodipodi="http://sodipodi.sourceforge.net/DTD/sodipodi-0.dtd"
   xmlns="http://www.w3.org/2000/svg"
   xmlns:svg="http://www.w3.org/2000/svg"><defs
     id="defs5">																		</defs><sodipodi:namedview
     id="namedview5"
     pagecolor="#ffffff"
     bordercolor="#000000"
     borderopacity="0.25"
     inkscape:showpageshadow="2"
     inkscape:pageopacity="0.0"
     inkscape:pagecheckerboard="0"
     inkscape:deskcolor="#d1d1d1"
     showgrid="false"
     inkscape:zoom="27.84375"
     inkscape:cx="16"
     inkscape:cy="16"
     inkscape:window-width="1920"
     inkscape:window-height="1129"
     inkscape:window-x="-8"
     inkscape:window-y="-8"
     inkscape:window-maximized="1"
     inkscape:current-layer="Layer_1" /><path
     id="polygon3"
     style="stroke-width:0.999999"
     d="m 16.000001,25.891792 4.00399,-6.329253 -4.00399,-3.584462 -4.00399,3.584462 z M 27.146678,4.8974177 C 24.16909,1.9333187 20.210367,0.30090381 15.999999,0.30090381 11.789632,0.30090381 7.8309085,1.9333187 4.8533225,4.8974177 1.8743786,7.8627514 0.23383602,11.805709 0.23383602,16 V 31.699096 H 31.766164 V 16 c 0,-4.194291 -1.640545,-8.1372486 -4.619486,-11.1025823 z M 25.224252,29.642658 H 6.7757468 V 13.870521 c 0,-2.5014 2.0464611,-4.536466 4.5619032,-4.536466 1.534368,0 2.957387,0.761395 3.806419,2.036789 l 0.85593,1.285621 0.85587,-1.285621 c 0.849032,-1.275335 2.272051,-2.036789 3.806418,-2.036789 2.515444,0 4.561904,2.035066 4.561904,4.536466 V 29.642658 Z M 10.553776,12.17646 c -0.6962981,0 -1.2621551,0.569183 -1.2621551,1.271948 0,0.702702 0.565857,1.272316 1.2621551,1.272316 0.695436,0 1.261416,-0.569614 1.261416,-1.272316 0,-0.702888 -0.565918,-1.271948 -1.261416,-1.271948 z m 10.893249,0 c -0.696298,0 -1.262155,0.569183 -1.262155,1.271948 0,0.702702 0.565857,1.272316 1.262155,1.272316 0.695435,0 1.261415,-0.569614 1.261415,-1.272316 0,-0.702888 -0.565918,-1.271948 -1.261415,-1.271948 z" /></svg>
