<?xml version="1.0" encoding="UTF-8" standalone="no"?>
<svg
   viewBox="0 0 32 32"
   height="32"
   width="32"
   version="1.1"
   id="svg9"
   sodipodi:docname="tailscale.svg"
   inkscape:version="1.3.2 (091e20e, 2023-11-25, custom)"
   xmlns:inkscape="http://www.inkscape.org/namespaces/inkscape"
   xmlns:sodipodi="http://sodipodi.sourceforge.net/DTD/sodipodi-0.dtd"
   xmlns="http://www.w3.org/2000/svg"
   xmlns:svg="http://www.w3.org/2000/svg">
  <defs
     id="defs9" />
  <sodipodi:namedview
     id="namedview9"
     pagecolor="#ffffff"
     bordercolor="#000000"
     borderopacity="0.25"
     inkscape:showpageshadow="2"
     inkscape:pageopacity="0.0"
     inkscape:pagecheckerboard="true"
     inkscape:deskcolor="#d1d1d1"
     inkscape:zoom="27.84375"
     inkscape:cx="16.071829"
     inkscape:cy="16.035915"
     inkscape:window-width="1920"
     inkscape:window-height="1129"
     inkscape:window-x="-8"
     inkscape:window-y="-8"
     inkscape:window-maximized="1"
     inkscape:current-layer="svg9"
     showgrid="false" />
  <path
     id="circle9"
     style="opacity:1;fill:#000000;stroke-width:2.2171"
     d="m 27.843302,23.881187 a 3.9722417,3.9722417 0 0 0 -3.971699,3.971699 3.9722417,3.9722417 0 0 0 3.971699,3.973642 3.9722417,3.9722417 0 0 0 3.971698,-3.973642 3.9722417,3.9722417 0 0 0 -3.971698,-3.971699 z m 0,0.678475 a 3.2930323,3.2930323 0 0 1 3.293224,3.293224 3.2930323,3.2930323 0 0 1 -3.293224,3.293224 3.2930323,3.2930323 0 0 1 -3.293224,-3.293224 3.2930323,3.2930323 0 0 1 3.293224,-3.293224 z m 3.972105,-8.670326 a 3.9722417,3.9722417 0 0 1 -3.972243,3.972242 3.9722417,3.9722417 0 0 1 -3.97224,-3.972242 3.9722417,3.9722417 0 0 1 3.97224,-3.972242 3.9722417,3.9722417 0 0 1 3.972243,3.972242 z M 16.07401,0.17347112 A 3.9722417,3.9722417 0 0 0 12.100368,4.145169 3.9722417,3.9722417 0 0 0 16.07401,8.1188122 3.9722417,3.9722417 0 0 0 20.04571,4.145169 3.9722417,3.9722417 0 0 0 16.07401,0.17347112 Z m 11.769292,0 A 3.9722417,3.9722417 0 0 0 23.871603,4.145169 3.9722417,3.9722417 0 0 0 27.843302,8.1188122 3.9722417,3.9722417 0 0 0 31.815,4.145169 3.9722417,3.9722417 0 0 0 27.843302,0.17347112 Z M 16.07401,0.85388896 A 3.2930323,3.2930323 0 0 1 19.367235,4.145169 3.2930323,3.2930323 0 0 1 16.07401,7.4383934 3.2930323,3.2930323 0 0 1 12.780786,4.145169 3.2930323,3.2930323 0 0 1 16.07401,0.85388896 Z m 11.769292,0 A 3.2930323,3.2930323 0 0 1 31.136526,4.145169 3.2930323,3.2930323 0 0 1 27.843302,7.4383934 3.2930323,3.2930323 0 0 1 24.550078,4.145169 3.2930323,3.2930323 0 0 1 27.843302,0.85388896 Z M 20.045801,27.85346 a 3.9722417,3.9722417 0 0 1 -3.972241,3.972241 3.9722417,3.9722417 0 0 1 -3.972242,-3.972241 3.9722417,3.9722417 0 0 1 3.972242,-3.972242 3.9722417,3.9722417 0 0 1 3.972241,3.972242 z m 0,-11.964124 a 3.9722417,3.9722417 0 0 1 -3.972241,3.972242 3.9722417,3.9722417 0 0 1 -3.972242,-3.972242 3.9722417,3.9722417 0 0 1 3.972242,-3.972242 3.9722417,3.9722417 0 0 1 3.972241,3.972242 z M 4.1569687,23.881187 A 3.9722417,3.9722417 0 0 0 0.18527081,27.852886 3.9722417,3.9722417 0 0 0 4.1569687,31.826528 3.9722417,3.9722417 0 0 0 8.1286675,27.852886 3.9722417,3.9722417 0 0 0 4.1569687,23.881187 Z m 0,0.678475 A 3.2930323,3.2930323 0 0 1 7.4501931,27.852886 3.2930323,3.2930323 0 0 1 4.1569687,31.14611 3.2930323,3.2930323 0 0 1 0.8637443,27.852886 3.2930323,3.2930323 0 0 1 4.1569687,24.559662 Z M 8.129075,15.889336 A 3.9722417,3.9722417 0 0 1 4.1568338,19.861578 3.9722417,3.9722417 0 0 1 0.18459211,15.889336 3.9722417,3.9722417 0 0 1 4.1568338,11.917094 3.9722417,3.9722417 0 0 1 8.129075,15.889336 Z M 4.1569687,0.17347112 A 3.9722417,3.9722417 0 0 0 0.18527081,4.145169 3.9722417,3.9722417 0 0 0 4.1569687,8.1188122 3.9722417,3.9722417 0 0 0 8.1286675,4.145169 3.9722417,3.9722417 0 0 0 4.1569687,0.17347112 Z m 0,0.68041784 A 3.2930323,3.2930323 0 0 1 7.4501931,4.145169 3.2930323,3.2930323 0 0 1 4.1569687,7.4383934 3.2930323,3.2930323 0 0 1 0.8637443,4.145169 3.2930323,3.2930323 0 0 1 4.1569687,0.85388896 Z" />
</svg>
